<svg xmlns="http://www.w3.org/2000/svg" xmlns:xlink="http://www.w3.org/1999/xlink" width="52px" height="51px" viewBox="0 0 52 51" version="1.1"><g style="transform-origin:center;transform:scale(calc(19/10))">
    <!-- Generator: Sketch 60 (88103) - https://sketch.com -->
    <title>iconSilhouette</title>
    <desc>Created with Sketch.</desc>
    <g id="goooop" stroke="none" stroke-width="1" fill="none" fill-rule="evenodd">
        <g id="white" transform="translate(1.000000, 1.000000)" fill="#FFFFFF">
            <g id="cannabis-drug-svgrepo-com">
                <g fill-rule="nonzero">
                    <path d="M49.885575,30.5731969 C50.0112086,30.920078 49.9447368,31.3074074 49.7090643,31.5909357 C46.754386,35.1562378 42.8774854,37.8835283 38.4979532,39.4776803 C38.1075049,39.6199805 37.712768,39.7518519 37.3150097,39.8754386 C39.0244639,40.7332359 40.588499,41.8632554 41.9345029,43.2258285 C42.1930799,43.4885965 42.2938596,43.8687135 42.1983431,44.2249513 C42.1028265,44.5811891 41.8255361,44.8594542 41.4702729,44.957115 C39.9560429,45.3725146 38.3961988,45.5812865 36.8331384,45.5812865 C35.2961014,45.5812865 33.7559454,45.3798246 32.2552632,44.9778752 C29.9974659,44.3724172 27.8923002,43.3297271 26.0614035,41.9214425 L26.0614035,48.3459064 C26.0614035,48.9201754 25.5961014,49.3845029 25.022807,49.3845029 C24.4495127,49.3845029 23.9842105,48.9202729 23.9842105,48.3459064 L23.9842105,41.9214425 C22.1522417,43.3307992 20.0460039,44.3744639 17.7892788,44.9789474 C16.2875244,45.3808967 14.7473684,45.5812865 13.2103314,45.5812865 C11.647271,45.5812865 10.0874269,45.3735867 8.57426901,44.9581871 C8.21910331,44.8605263 7.94181287,44.5822612 7.84619883,44.2260234 C7.75068226,43.8697856 7.85136452,43.4896686 8.10994152,43.2269006 C9.45692008,41.8632554 11.0209552,40.7323587 12.7304094,39.8755361 C12.3337232,39.7519493 11.9390838,39.620078 11.5474659,39.4777778 C7.16793372,37.8836257 3.29103314,35.1563353 0.336354776,31.5910331 C0.100584795,31.3075049 0.0341130604,30.9201754 0.159844055,30.5732943 C0.286549708,30.2264133 0.586647173,29.9730019 0.949122807,29.9065302 C4.34619883,29.2854776 7.83781676,29.3519493 11.2110136,30.0883041 C10.7291423,29.482846 10.2638402,28.8617934 9.81939571,28.2262183 C6.06500975,22.8652047 3.80311891,16.6079922 3.27758285,10.1306043 C3.24853801,9.76296296 3.41569201,9.40672515 3.7168616,9.19590643 C4.01910331,8.98401559 4.41062378,8.94873294 4.74610136,9.10243665 C10.27846,11.6395712 15.1076998,15.5424951 18.7820663,20.4308967 C18.7820663,20.4090643 18.7809942,20.387232 18.7809942,20.3664717 C18.7809942,13.3978558 20.6296296,6.55896686 24.1264133,0.589376218 C24.3133528,0.271539961 24.6539961,0.0763157895 25.0227096,0.0763157895 C25.391423,0.0763157895 25.7320663,0.271539961 25.9190058,0.589376218 C29.4157895,6.55896686 31.264425,13.3977583 31.264425,20.3664717 C31.264425,20.387232 31.2633528,20.4090643 31.2633528,20.4308967 C34.9377193,15.541423 39.7680312,11.6395712 45.2993177,9.10243665 C45.6347953,8.94873294 46.0263158,8.98401559 46.3285575,9.19590643 C46.6297271,9.40672515 46.7969786,9.76296296 46.7678363,10.1306043 C46.2423002,16.6079922 43.9804094,22.8653021 40.2260234,28.2272904 C39.7825536,28.8617934 39.3172515,29.4818713 38.8344055,30.0873294 C42.2055556,29.3520468 45.6981481,29.285575 49.0962963,29.9066277 C49.4587719,29.9730019 49.7588694,30.2263158 49.885575,30.5731969 Z M46.8364522,31.6824561 C43.2814815,31.3230994 39.6653021,31.7645224 36.2660819,32.9816764 C33.9583821,35.3267057 31.3703704,37.3342105 28.5403509,38.9720273 C30.2560429,39.0426901 31.9758285,38.9283626 33.6811891,38.627193 C35.0687135,38.3831384 36.45,38.0123782 37.7876218,37.5253411 C41.2189084,36.2769006 44.3148148,34.2735867 46.8364522,31.6824561 Z M38.5249513,27.0359649 C41.7091618,22.4882066 43.7550682,17.2590643 44.4965887,11.8108187 C39.6309942,14.3708577 35.4176413,18.0826511 32.2334308,22.6304094 C31.8252437,23.2130604 31.4285575,23.8185185 31.0536062,24.4312865 C30.5935673,28.8607212 29.3878168,33.1769006 27.487232,37.1815789 C30.2279727,35.5977583 32.7287524,33.6473684 34.9492203,31.3594542 C36.2453216,30.0290448 37.4479532,28.5740741 38.5249513,27.0359649 Z M32.7931774,42.9714425 C34.8120858,43.5125731 36.9120858,43.6413255 38.9611111,43.3577973 C37.4292398,42.1665692 35.6762183,41.2661793 33.7974659,40.7136452 C32.3777778,40.9503899 30.9487329,41.069883 29.5207602,41.069883 C29.1562378,41.069883 28.7917154,41.0615984 28.4281676,41.0460039 C29.7668616,41.9017544 31.238499,42.5549708 32.7931774,42.9714425 Z M29.1873294,20.3663743 C29.1873294,14.3895712 27.7520468,8.51549708 25.0227096,3.2625731 C22.2933723,8.51559454 20.8580897,14.3895712 20.8580897,20.3663743 C20.8580897,26.3462963 22.2933723,32.2224172 25.0227096,37.4754386 C27.7520468,32.2224172 29.1873294,26.3463938 29.1873294,20.3663743 Z M21.6184211,41.0460039 C21.2538986,41.0615984 20.8893762,41.069883 20.5248538,41.069883 C19.0968811,41.069883 17.6688109,40.9504873 16.2501949,40.7136452 C14.3714425,41.2651072 12.6162768,42.1654971 11.0834308,43.3577973 C13.1314815,43.6423977 15.231384,43.5135478 17.2513645,42.9725146 C18.8060429,42.5560429 20.278655,41.902729 21.6184211,41.0460039 Z M16.3675439,38.627193 C18.0707602,38.9283626 19.788499,39.0416179 21.504191,38.9709552 C18.6762183,37.3352827 16.0882066,35.3287524 13.7794347,32.9816764 C10.3761209,31.7645224 6.7619883,31.3230994 3.20906433,31.6824561 C5.73070175,34.2735867 8.82660819,36.2769981 12.2578947,37.5253411 C13.591423,38.0103314 14.9674464,38.380117 16.3476608,38.6240741 C16.3550682,38.6251462 16.361306,38.6261209 16.3675439,38.627193 Z M22.5593567,37.1825536 C20.6577973,33.1769006 19.4520468,28.8616959 18.9919103,24.4312865 C18.6159844,23.8185185 18.2202729,23.2130604 17.8120858,22.6304094 C14.6289474,18.0836257 10.4145224,14.3718324 5.54892788,11.8118908 C6.29044834,17.2590643 8.33635478,22.4882066 11.5205653,27.0348928 C12.5975634,28.5739766 13.8001949,30.0290448 15.0952242,31.3583821 C17.3177388,33.6483431 19.8196881,35.5987329 22.5593567,37.1825536 Z" id="Shape" stroke="#FFFFFF"/>
                    <g id="Group" transform="translate(3.118908, 3.216374)">
                        <path d="M33.1471735,29.7653021 C36.5462963,28.5481481 40.1625731,28.1067251 43.7175439,28.4660819 C41.1959064,31.0572125 38.1,33.0606238 34.6687135,34.3089669 C33.3310916,34.7960039 31.9498051,35.1667641 30.5622807,35.4108187 C28.8570175,35.7119883 27.1371345,35.8262183 25.4214425,35.755653 C28.251462,34.1178363 30.8395712,32.1103314 33.1471735,29.7653021 Z" id="Path"/>
                        <path d="M41.3776803,8.59444444 C40.6361598,14.0426901 38.5902534,19.2717349 35.4060429,23.8195906 C34.3290448,25.3576998 33.1264133,26.8126706 31.8303119,28.1430799 C29.6099415,30.4309942 27.1090643,32.381384 24.3683236,33.9652047 C26.2689084,29.9605263 27.4746589,25.644347 27.9346979,21.2149123 C28.3096491,20.6021442 28.7063353,19.9966862 29.1145224,19.4140351 C32.2987329,14.8662768 36.5120858,11.1544834 41.3776803,8.59444444 Z" id="Path"/>
                        <path d="M35.8422027,40.141423 C33.7931774,40.4249513 31.6931774,40.2961988 29.674269,39.7550682 C28.1195906,39.3385965 26.6479532,38.6853801 25.3092593,37.8296296 C25.6727096,37.8452242 26.0373294,37.8535088 26.4018519,37.8535088 C27.8298246,37.8535088 29.2588694,37.7341131 30.6785575,37.497271 C32.5573099,38.0497076 34.3103314,38.9501949 35.8422027,40.141423 Z" id="Path"/>
                        <path d="M21.9038986,0.0461988304 C24.6332359,5.29922027 26.0685185,11.1731969 26.0685185,17.15 C26.0685185,23.129922 24.6332359,29.0060429 21.9038986,34.2590643 C19.1745614,29.0060429 17.7392788,23.1300195 17.7392788,17.15 C17.7392788,11.1731969 19.1745614,5.29912281 21.9038986,0.0461988304 Z" id="Path"/>
                        <path d="M17.4059454,37.8535088 C17.7704678,37.8535088 18.1349903,37.8452242 18.4995127,37.8296296 C17.1597466,38.6864522 15.6871345,39.3396686 14.1324561,39.7561404 C12.1124756,40.2971735 10.0125731,40.4260234 7.96452242,40.141423 C9.49746589,38.9491228 11.2525341,38.0487329 13.1312865,37.497271 C14.5499025,37.7340156 15.9778752,37.8535088 17.4059454,37.8535088 Z" id="Path"/>
                        <path d="M18.3852827,35.7545809 C16.6695906,35.8252437 14.9518519,35.7119883 13.2486355,35.4108187 C13.2423977,35.4097466 13.2361598,35.4087719 13.2289474,35.4076998 C11.8487329,35.1636452 10.4726121,34.7939571 9.13918129,34.3089669 C5.70779727,33.0606238 2.61189084,31.0573099 0.0903508772,28.4660819 C3.64317739,28.1067251 7.25740741,28.5481481 10.6607212,29.7653021 C12.9692008,32.1123782 15.5573099,34.1188109 18.3852827,35.7545809 Z" id="Path"/>
                        <path d="M15.8730019,21.2149123 C16.3330409,25.6453216 17.5387914,29.9605263 19.4404483,33.9661793 C16.7007797,32.3823587 14.1989279,30.4319688 11.9764133,28.1420078 C10.681384,26.8126706 9.47875244,25.3576998 8.40175439,23.8185185 C5.21754386,19.2717349 3.17163743,14.0426901 2.43011696,8.59551657 C7.2957115,11.1555556 11.5101365,14.8673489 14.6932749,19.4140351 C15.1013645,19.9966862 15.497076,20.6021442 15.8730019,21.2149123 Z" id="Path"/>
                    </g>
                </g>
            </g>
        </g>
    </g>
</g><style>*{stroke:none!important;fill:#46B430!important}</style></svg>
