<?xml version="1.0" encoding="UTF-8"?>
<svg width="1860px" height="900px" viewBox="0 0 1860 900" version="1.1" xmlns="http://www.w3.org/2000/svg" xmlns:xlink="http://www.w3.org/1999/xlink">
    <!-- Generator: Sketch 60 (88103) - https://sketch.com -->
    <title>Goooop</title>
    <desc>Created with Sketch.</desc>
    <g id="Page-1" stroke="none" stroke-width="1" fill="none" fill-rule="evenodd">
        <g id="Goooop">
            <g id="TimeMachine">
                <polygon id="Background" fill="#42949F" fill-rule="nonzero" points="0 899.94 1860 899.94 1860 0 0 0"></polygon>
                <g id="man" transform="translate(1445.764277, 360.899075)" fill-rule="nonzero">
                    <path d="M75.0157229,21.6609245 C75.4857229,9.24292453 85.9257229,-0.44707547 98.3457229,0.0159245299 C110.765723,0.47992453 120.455723,10.9219245 119.985723,23.3399245 C119.525723,35.7579245 109.085723,45.4489245 96.6657229,44.9849245 C84.2457229,44.5209245 74.5557229,34.0789245 75.0157229,21.6609245" id="Fill-128" fill="#0A0B09"></path>
                    <path d="M114.085723,29.7969245 C103.505723,32.8319245 90.0357229,25.9239245 90.0357229,25.9239245 C99.2957229,46.1609245 114.085723,29.7969245 114.085723,29.7969245" id="Fill-129" fill="#FFFFFE"></path>
                    <path d="M118.715723,48.6609245 L184.395723,32.1209245 C186.915723,31.4879245 186.605723,25.8719245 185.045723,21.5649245 L199.695723,17.8769245 C201.285723,17.4759245 202.255723,15.8589245 201.855723,14.2659245 C201.445723,12.6729245 199.835723,11.7059245 198.235723,12.1079245 L172.525723,18.5839245 L172.275723,18.6749245 L120.535723,31.7009245 C117.295723,39.8719245 109.865723,45.9149245 100.705723,47.0969245 C99.3457229,47.2719245 97.9557229,47.3339245 96.5757229,47.2829245 C89.9557229,47.0359245 83.8357229,44.2259245 79.3257229,39.3699245 C77.9557229,37.8929245 76.7857229,36.2799245 75.8257229,34.5649245 L74.0357229,34.3429245 C73.2057229,34.1429245 72.3157229,34.0699245 71.4157229,34.1589245 C66.1057229,34.6719245 60.0257229,38.0319245 54.4457229,42.0999245 C49.4757229,45.7299245 44.8857229,49.9239245 41.5857229,53.1639245 C28.8557229,48.4249245 14.0357229,44.5469245 6.66572289,48.5199245 C3.71572289,50.1119245 1.73572289,52.7539245 1.09572289,55.9609245 C0.235722894,60.2929245 3.03572289,64.5079245 7.37572289,65.3749245 C10.3057229,65.9589245 13.1757229,64.8659245 15.0057229,62.7559245 C19.5557229,62.8579245 30.6657229,65.9339245 40.6157229,69.9479245 C41.5857229,70.3399245 42.5957229,70.5309245 43.6057229,70.5309245 C45.7757229,70.5309245 47.8957229,69.6499245 49.4357229,68.0089245 C51.9857229,65.2929245 54.9757229,62.4479245 57.9857229,59.8369245 C59.7957229,58.2579245 61.6157229,56.7739245 63.3557229,55.4549245 L56.7157229,108.897925 C56.6357229,109.551925 56.6557229,110.194925 56.7257229,110.820925 C56.7557229,112.273925 57.0257229,113.746925 57.6057229,115.175925 L66.5357229,137.426925 L110.575723,114.120925 L118.715723,48.6609245" id="Fill-3" fill="#0A0B09"></path>
                    <path d="M90.7757229,60.6639245 L91.1557229,60.4219245 L92.3157229,54.1379245 L89.4657229,52.8259245 L86.6157229,51.5129245 L82.5957229,56.4849245 L82.6557229,56.9319245 C83.3757229,58.4499245 84.5957229,59.6009245 86.0357229,60.2679245 C87.4857229,60.9329245 89.1457229,61.1039245 90.7757229,60.6639245" id="Fill-4" fill="#FFFFFE"></path>
                    <path d="M80.9457229,60.0219245 C80.8657229,60.5539245 80.8057229,62.1449245 80.7357229,62.6749245 C69.4257229,75.0269245 60.3757229,81.2239245 49.7557229,89.0359245 C49.7757229,94.2289245 46.8257229,104.251925 46.8257229,104.251925 C46.8257229,104.251925 57.5257229,101.905925 62.9057229,100.818925 C70.6357229,89.8229245 79.2657229,80.1179245 86.8857229,65.1709245 C87.4257229,64.7809245 87.9657229,64.3769245 88.4957229,63.9619245 C85.8357229,63.8659245 82.4057229,62.6949245 80.9457229,60.0219245" id="Fill-5" fill="#FFFFFE"></path>
                </g>
                <g id="controls" transform="translate(1394.000000, 410.238000)" fill-rule="nonzero">
                    <g id="buttons" transform="translate(181.000000, 69.000000)">
                        <polygon id="Fill-120" fill="#FFFFFE" points="0 5.625 5.63 5.625 5.63 0 0 0"></polygon>
                        <polygon id="Fill-121" fill="#F4E92A" points="10.54 5.625 16.16 5.625 16.16 0 10.54 0"></polygon>
                        <polygon id="Fill-122" fill="#FFFFFE" points="21.07 5.625 26.7 5.625 26.7 0 21.07 0"></polygon>
                        <polygon id="Fill-123" fill="#F4E92A" points="31.61 5.625 37.23 5.625 37.23 0 31.61 0"></polygon>
                        <polygon id="Fill-124" fill="#F4E92A" points="42.14 5.625 47.77 5.625 47.77 0 42.14 0"></polygon>
                        <polygon id="Fill-125" fill="#FFFFFE" points="52.68 5.625 58.3 5.625 58.3 0 52.68 0"></polygon>
                        <polygon id="Fill-126" fill="#FFFFFE" points="63.22 5.625 68.84 5.625 68.84 0 63.22 0"></polygon>
                        <polygon id="Fill-127" fill="#F4E92A" points="73.75 5.625 79.38 5.625 79.38 0 73.75 0"></polygon>
                    </g>
                    <g id="levers" transform="translate(24.040000, 0.231507)" fill="#0A0B09">
                        <path d="M224.25,38.0424927 C224.25,34.3604927 221.26,31.3764927 217.58,31.3764927 C213.9,31.3764927 210.92,34.3604927 210.92,38.0424927 C210.92,41.0274927 212.88,43.5534927 215.58,44.4034927 L215.58,74.0424927 L219.58,74.0424927 L219.58,44.4034927 C222.29,43.5534927 224.25,41.0274927 224.25,38.0424927" id="Fill-88"></path>
                        <path d="M200,38.0424927 C200,34.3604927 197.01,31.3764927 193.33,31.3764927 C189.65,31.3764927 186.67,34.3604927 186.67,38.0424927 C186.67,41.0274927 188.63,43.5534927 191.33,44.4034927 L191.33,74.0424927 L195.33,74.0424927 L195.33,44.4034927 C198.04,43.5534927 200,41.0274927 200,38.0424927" id="Fill-89"></path>
                        <path d="M47.18,18.1214927 C47.35,14.4444927 44.51,11.3224927 40.84,11.1494927 C37.16,10.9764927 34.04,13.8184927 33.86,17.4954927 C33.72,20.4774927 35.56,23.0924927 38.23,24.0684927 L36.83,53.6754927 L40.83,53.8634927 L42.22,24.2564927 C44.96,23.5344927 47.04,21.1034927 47.18,18.1214927" id="Fill-90"></path>
                        <path d="M23.08,9.48649274 C24.63,6.14949274 23.19,2.18249274 19.85,0.62649274 C16.52,-0.92950726 12.55,0.51249274 10.99,3.84949274 C9.73,6.55449274 10.44,9.67349274 12.53,11.5864927 L-1.11910481e-13,38.4474927 L3.63,40.1374927 L16.16,13.2774927 C18.97,13.6514927 21.81,12.1914927 23.08,9.48649274" id="Fill-91"></path>
                    </g>
                    <path d="M6.87,12.858 L0.43,18.012 C18.63,37.906 49.89,57.222 84.68,72.218 L82.37,56.858 L6.87,12.858" id="Fill-9" fill="#0A0B09"></path>
                    <path d="M127.54,87.918 C191.17,107.269 255.2,109.485 267.17,76.76 C269.1,71.472 270.71,66.143 272.01,60.796 L177.37,61.358 L127.54,87.918" id="Fill-10" fill="#0A0B09"></path>
                </g>
                <g id="machine" transform="translate(1212.874697, 174.676857)" fill-rule="nonzero">
                    <path d="M233.115303,325.220143 C230.955303,331.136143 224.405303,334.177143 218.495303,332.013143 C212.575303,329.849143 209.535303,323.302143 211.695303,317.386143 C213.865303,311.472143 220.405303,308.431143 226.325303,310.594143 C232.235303,312.758143 235.275303,319.306143 233.115303,325.220143" id="Fill-84" fill="#FFFFFE"></path>
                    <path d="M344.655303,366.015143 C342.485303,371.929143 335.935303,374.970143 330.025303,372.807143 C324.115303,370.644143 321.065303,364.095143 323.235303,358.181143 C325.395303,352.266143 331.945303,349.225143 337.855303,351.388143 C343.775303,353.552143 346.815303,360.100143 344.655303,366.015143" id="Fill-85" fill="#FFFFFE"></path>
                    <path d="M398.705303,47.4241426 C399.655303,47.7701426 400.715303,47.2791426 401.055303,46.3321426 C401.405303,45.3861426 400.915303,44.3291426 399.965303,43.9831426 L392.085303,41.0981426 L395.305303,32.2671426 C402.505303,33.0121426 409.565303,28.8491426 412.165303,21.7451426 C415.235303,13.3511426 410.915303,4.05814263 402.525303,0.98914263 C394.135303,-2.08085737 384.835303,2.23414263 381.765303,10.6281426 C379.165303,17.7321426 381.875303,25.4671426 387.855303,29.5411426 L384.625303,38.3721426 L376.735303,35.4881426 C375.795303,35.1411426 374.735303,35.6331426 374.385303,36.5791426 C374.045303,37.5251426 374.535303,38.5821426 375.485303,38.9281426 L383.365303,41.8131426 L381.435303,47.1001426 L373.545303,44.2161426 C372.605303,43.8691426 371.545303,44.3601426 371.195303,45.3071426 C370.855303,46.2531426 371.345303,47.3101426 372.285303,47.6561426 L380.175303,50.5411426 L378.245303,55.8271426 L370.355303,52.9431426 C369.405303,52.5971426 368.355303,53.0881426 368.005303,54.0341426 C367.655303,54.9811426 368.145303,56.0381426 369.095303,56.3841426 L376.985303,59.2681426 L375.045303,64.5551426 L367.165303,61.6711426 C366.215303,61.3251426 365.155303,61.8161426 364.815303,62.7621426 C364.465303,63.7091426 364.955303,64.7661426 365.905303,65.1121426 L373.785303,67.9961426 L371.855303,73.2831426 L363.965303,70.3991426 C363.025303,70.0531426 361.965303,70.5441426 361.625303,71.4901426 C361.275303,72.4361426 361.765303,73.4941426 362.715303,73.8401426 L370.595303,76.7241426 L362.115303,99.9191426 L369.565303,102.646143 L378.055303,79.4511426 L385.935303,82.3351426 C386.885303,82.6811426 387.945303,82.1901426 388.285303,81.2441426 C388.635303,80.2981426 388.145303,79.2401426 387.195303,78.8941426 L379.315303,76.0101426 L381.245303,70.7231426 L389.125303,73.6071426 C390.075303,73.9531426 391.135303,73.4621426 391.475303,72.5161426 C391.825303,71.5701426 391.335303,70.5121426 390.385303,70.1661426 L382.505303,67.2821426 L384.435303,61.9951426 L392.325303,64.8791426 C393.265303,65.2251426 394.325303,64.7351426 394.675303,63.7881426 C395.015303,62.8421426 394.525303,61.7841426 393.585303,61.4381426 L385.695303,58.5541426 L387.625303,53.2671426 L395.515303,56.1521426 C396.465303,56.4981426 397.515303,56.0071426 397.865303,55.0601426 C398.215303,54.1141426 397.715303,53.0571426 396.775303,52.7111426 L388.885303,49.8261426 L390.825303,44.5401426 L398.705303,47.4241426" id="antenna" fill="#0A0B09"></path>
                    <path d="M388.655303,13.1451426 L385.205303,11.8861426 C387.585303,5.40514263 394.785303,2.05914263 401.265303,4.43014263 L400.005303,7.87114263 C395.425303,6.19414263 390.325303,8.56014263 388.655303,13.1451426" id="Fill-87" fill="#FFFFFE"></path>
                    <path d="M216.345303,510.010143 L216.345303,510.010143 C211.695303,508.309143 209.285303,503.114143 210.985303,498.466143 L248.085303,397.037143 C249.785303,392.388143 254.975303,389.976143 259.625303,391.677143 C264.275303,393.377143 266.685303,398.571143 264.985303,403.220143 L227.895303,504.648143 C226.195303,509.298143 220.995303,511.710143 216.345303,510.010143" id="Fill-11" fill="#0A0B09"></path>
                    <path d="M5.44530283,432.954143 L5.44530283,432.954143 C10.9853028,437.140143 18.9453028,436.032143 23.1253028,430.491143 L107.595303,318.696143 C111.785303,313.154143 110.675303,305.194143 105.135303,301.007143 C99.5953028,296.820143 91.6353028,297.927143 87.4453028,303.469143 L2.97530283,415.264143 C-1.20469717,420.806143 -0.10469717,428.766143 5.44530283,432.954143" id="Fill-12" fill="#0A0B09"></path>
                    <polyline id="Fill-13" fill="#0A0B09" points="93.3553028 318.883143 157.315303 310.841143 155.575303 296.998143 91.6153028 305.040143 93.3553028 318.883143"></polyline>
                    <path d="M161.995303,207.605143 C191.335303,127.377143 280.475303,85.9801426 360.705303,115.323143 C440.935303,144.667143 482.335303,233.810143 452.985303,314.039143 C423.645303,394.266143 132.645303,287.834143 161.995303,207.605143 Z M371.015303,87.1491426 C275.095303,52.0671426 168.895303,101.384143 133.815303,197.301143 C98.7353028,293.218143 148.045303,399.413143 243.965303,434.495143 C339.885303,469.577143 446.085303,420.261143 481.165303,324.344143 C516.245303,228.427143 466.925303,122.231143 371.015303,87.1491426 L371.015303,87.1491426 Z" id="Fill-20" fill="#0A0B09"></path>
                    <path d="M427.205303,587.214143 L427.205303,587.214143 C420.265303,586.838143 414.895303,580.855143 415.275303,573.920143 L422.865303,434.008143 C423.245303,427.072143 429.225303,421.705143 436.165303,422.082143 C443.095303,422.458143 448.465303,428.440143 448.085303,435.376143 L440.495303,575.288143 C440.115303,582.224143 434.135303,587.591143 427.205303,587.214143" id="Fill-16" fill="#0A0B09"></path>
                    <polyline id="Fill-17" fill="#0A0B09" points="433.635303 443.340143 389.955303 395.927143 400.215303 386.473143 443.895303 433.886143 433.635303 443.340143"></polyline>
                    <path d="M98.0353028,318.596143 C97.0353028,321.320143 94.0253028,322.719143 91.2953028,321.723143 C88.5753028,320.728143 87.1753028,317.713143 88.1753028,314.990143 C89.1653028,312.266143 92.1853028,310.867143 94.9053028,311.863143 C97.6253028,312.859143 99.0253028,315.874143 98.0353028,318.596143" id="Fill-14" fill="#FFFFFE"></path>
                    <path d="M95.0553028,317.509143 C94.6653028,318.590143 93.4653028,319.145143 92.3853028,318.750143 C91.3053028,318.354143 90.7553028,317.158143 91.1453028,316.078143 C91.5453028,314.997143 92.7353028,314.441143 93.8153028,314.837143 C94.8953028,315.232143 95.4553028,316.428143 95.0553028,317.509143" id="Fill-15" fill="#0A0B09"></path>
                    <path d="M430.245303,440.103143 C429.245303,442.826143 430.645303,445.842143 433.365303,446.837143 C436.095303,447.833143 439.105303,446.433143 440.105303,443.710143 C441.095303,440.987143 439.695303,437.972143 436.975303,436.976143 C434.255303,435.980143 431.235303,437.380143 430.245303,440.103143" id="Fill-18" fill="#FFFFFE"></path>
                    <path d="M433.215303,441.191143 C432.815303,442.271143 433.375303,443.468143 434.455303,443.863143 C435.535303,444.259143 436.735303,443.703143 437.125303,442.622143 C437.525303,441.542143 436.965303,440.345143 435.885303,439.950143 C434.805303,439.554143 433.615303,440.110143 433.215303,441.191143" id="Fill-19" fill="#0A0B09"></path>
                </g>
                <g id="clock-middle" transform="translate(1422.628750, 513.118750)" fill-rule="nonzero">
                    <path d="M86.3712502,14.8192501 C106.12125,34.5802501 106.12125,66.6112501 86.3612502,86.3662501 C66.6012502,106.12225 34.5712502,106.12025 14.8112502,86.3592501 C-4.93874976,66.6012501 -4.93874976,34.5702501 14.8212502,14.8162501 C34.5812502,-4.94074991 66.6112502,-4.93774991 86.3712502,14.8192501" id="Fill-21" fill="#0A0B09"></path>
                    <path d="M92.5112502,65.9212501 C84.0412502,89.0712501 58.4112502,100.97225 35.2612502,92.5052501 C12.1212502,84.0392501 0.211250237,58.4092501 8.68125024,35.2592501 C17.1512502,12.1102501 42.7812502,0.209250085 65.9212502,8.67525009 C89.0712502,17.1422501 100.98125,42.7732501 92.5112502,65.9212501" id="Fill-22" fill="#FFFFFE"></path>
                    <polyline id="Fill-23" fill="#0A0B09" points="62.9012502 20.7592501 60.4412502 19.8582501 65.1212502 7.06425009 67.5812502 7.96625009 62.9012502 20.7592501"></polyline>
                    <polyline id="Fill-24" fill="#0A0B09" points="36.0712502 94.1192501 33.6012502 93.2182501 38.2812502 80.4242501 40.7512502 81.3262501 36.0712502 94.1192501"></polyline>
                    <polyline id="Fill-25" fill="#0A0B09" points="45.3512502 12.9352501 42.7612502 13.3882501 41.4712502 6.01925009 44.0612502 5.56625009 45.3512502 12.9352501"></polyline>
                    <polyline id="Fill-26" fill="#0A0B09" points="59.7112502 95.1632501 57.1312502 95.6152501 55.8412502 88.2492501 58.4312502 87.7952501 59.7112502 95.1632501"></polyline>
                    <polyline id="Fill-27" fill="#0A0B09" points="27.2212502 20.6012501 25.2112502 22.2872501 20.4112502 16.5492501 22.4212502 14.8662501 27.2212502 20.6012501"></polyline>
                    <polyline id="Fill-28" fill="#0A0B09" points="80.7812502 84.6302501 78.7612502 86.3162501 73.9612502 80.5802501 75.9812502 78.8952501 80.7812502 84.6302501"></polyline>
                    <polyline id="Fill-29" fill="#0A0B09" points="12.9412502 55.8372501 13.3912502 58.4252501 6.02125024 59.7132501 5.57125024 57.1242501 12.9412502 55.8372501"></polyline>
                    <polyline id="Fill-30" fill="#0A0B09" points="95.1612502 41.4712501 95.6212502 44.0582501 88.2512502 45.3472501 87.8012502 42.7592501 95.1612502 41.4712501"></polyline>
                    <polyline id="Fill-31" fill="#0A0B09" points="20.6012502 73.9622501 22.2912502 75.9782501 16.5512502 80.7762501 14.8712502 78.7612501 20.6012502 73.9622501"></polyline>
                    <polyline id="Fill-32" fill="#0A0B09" points="84.6312502 20.4052501 86.3212502 22.4232501 80.5812502 27.2222501 78.9012502 25.2072501 84.6312502 20.4052501"></polyline>
                    <polyline id="Fill-33" fill="#0A0B09" points="20.7612502 38.2812501 19.8612502 40.7482501 7.06125024 36.0692501 7.97125024 33.6032501 20.7612502 38.2812501"></polyline>
                    <polyline id="Fill-34" fill="#0A0B09" points="94.1212502 65.1132501 93.2212502 67.5802501 80.4312502 62.9022501 81.3312502 60.4362501 94.1212502 65.1132501"></polyline>
                    <polyline id="Fill-35" fill="#0A0B09" points="45.4512502 45.0892501 48.9912502 43.2012501 64.7112502 72.6262501 61.1812502 74.5152501 45.4512502 45.0892501"></polyline>
                    <polyline id="Fill-36" fill="#0A0B09" points="50.6712502 42.2902501 53.5312502 42.8572501 45.6312502 82.8602501 42.7712502 82.2952501 50.6712502 42.2902501"></polyline>
                </g>
                <g id="clock-left" transform="translate(1310.202040, 469.728464)" fill-rule="nonzero">
                    <path d="M101.84796,66.2505355 C93.9379603,93.8175355 65.1779603,109.750536 37.6179603,101.840536 C10.0479603,93.9325355 -5.8820397,65.1805355 2.0279603,37.6135355 C9.9379603,10.0515355 38.6879603,-5.88046448 66.2579603,2.02653552 C93.8179603,9.93353552 109.74796,38.6865355 101.84796,66.2505355" id="Fill-37" fill="#0A0B09"></path>
                    <path d="M94.9579603,67.6675355 C86.2679603,91.4275355 59.9579603,103.640536 36.2079603,94.9515355 C12.4479603,86.2625355 0.227960297,59.9595355 8.9179603,36.1995355 C17.6079603,12.4425355 43.9179603,0.22753552 67.6679603,8.91653552 C91.4279603,17.6055355 103.64796,43.9105355 94.9579603,67.6675355" id="Fill-38" fill="#FFFFFE"></path>
                    <polyline id="Fill-39" fill="#0A0B09" points="64.5679603 21.3185355 62.0379603 20.3925355 66.8379603 7.26253552 69.3679603 8.18853552 64.5679603 21.3185355"></polyline>
                    <polyline id="Fill-40" fill="#0A0B09" points="37.0279603 96.6085355 34.4979603 95.6825355 39.3079603 82.5525355 41.8379603 83.4785355 37.0279603 96.6085355"></polyline>
                    <polyline id="Fill-41" fill="#0A0B09" points="46.5579603 13.2885355 43.8979603 13.7525355 42.5779603 6.18953552 45.2279603 5.72453552 46.5579603 13.2885355"></polyline>
                    <polyline id="Fill-42" fill="#0A0B09" points="61.2979603 97.6795355 58.6379603 98.1445355 57.3179603 90.5835355 59.9779603 90.1185355 61.2979603 97.6795355"></polyline>
                    <polyline id="Fill-43" fill="#0A0B09" points="27.9479603 21.1565355 25.8779603 22.8855355 20.9579603 16.9975355 23.0279603 15.2705355 27.9479603 21.1565355"></polyline>
                    <polyline id="Fill-44" fill="#0A0B09" points="82.9179603 86.8695355 80.8479603 88.5995355 75.9279603 82.7125355 77.9879603 80.9835355 82.9179603 86.8695355"></polyline>
                    <polyline id="Fill-45" fill="#0A0B09" points="13.2879603 57.3185355 13.7579603 59.9745355 6.1879603 61.2965355 5.7279603 58.6395355 13.2879603 57.3185355"></polyline>
                    <polyline id="Fill-46" fill="#0A0B09" points="97.6779603 42.5745355 98.1479603 45.2305355 90.5879603 46.5525355 90.1179603 43.8965355 97.6779603 42.5745355"></polyline>
                    <polyline id="Fill-47" fill="#0A0B09" points="21.1579603 75.9205355 22.8879603 77.9895355 16.9979603 82.9135355 15.2679603 80.8455355 21.1579603 75.9205355"></polyline>
                    <polyline id="Fill-48" fill="#0A0B09" points="86.8779603 20.9565355 88.6079603 23.0255355 82.7179603 27.9505355 80.9879603 25.8835355 86.8779603 20.9565355"></polyline>
                    <polyline id="Fill-49" fill="#0A0B09" points="21.3179603 39.3015355 20.3879603 41.8335355 7.2579603 37.0315355 8.1879603 34.4995355 21.3179603 39.3015355"></polyline>
                    <polyline id="Fill-50" fill="#0A0B09" points="96.6079603 66.8395355 95.6879603 69.3715355 82.5579603 64.5695355 83.4779603 62.0385355 96.6079603 66.8395355"></polyline>
                    <polyline id="Fill-51" fill="#0A0B09" points="45.7479603 56.5565355 44.2179603 52.7415355 76.0079603 40.0075355 77.5379603 43.8245355 45.7479603 56.5565355"></polyline>
                    <polyline id="Fill-52" fill="#0A0B09" points="56.7879603 58.9325355 54.0579603 60.1565355 36.9579603 21.9595355 39.6879603 20.7355355 56.7879603 58.9325355"></polyline>
                </g>
                <g id="clock-right" transform="translate(1533.721936, 551.479754)" fill-rule="nonzero">
                    <path d="M66.6280636,101.733246 C39.1280636,109.850246 10.2480636,94.1332463 2.13806358,66.6302463 C-5.98193642,39.1272463 9.73806358,10.2542463 37.2380636,2.1362463 C64.7380636,-5.9787537 93.6180636,9.7362463 101.728064,37.2382463 C109.848064,64.7422463 94.1380636,93.6172463 66.6280636,101.733246" id="Fill-53" fill="#0A0B09"></path>
                    <path d="M94.9580636,67.6692463 C86.2680636,91.4292463 59.9580636,103.642246 36.1980636,94.9532463 C12.4480636,86.2642463 0.22806358,59.9602463 8.91806358,36.2012463 C17.6080636,12.4432463 43.9180636,0.2292463 67.6680636,8.9172463 C91.4280636,17.6072463 103.648064,43.9122463 94.9580636,67.6692463" id="Fill-54" fill="#FFFFFE"></path>
                    <polyline id="Fill-55" fill="#0A0B09" points="64.5680636 21.3202463 62.0380636 20.3942463 66.8380636 7.2642463 69.3680636 8.1902463 64.5680636 21.3202463"></polyline>
                    <polyline id="Fill-56" fill="#0A0B09" points="37.0280636 96.6102463 34.4980636 95.6842463 39.2980636 82.5542463 41.8380636 83.4802463 37.0280636 96.6102463"></polyline>
                    <polyline id="Fill-57" fill="#0A0B09" points="46.5580636 13.2902463 43.8980636 13.7542463 42.5780636 6.1912463 45.2280636 5.7262463 46.5580636 13.2902463"></polyline>
                    <polyline id="Fill-58" fill="#0A0B09" points="61.2980636 97.6812463 58.6380636 98.1452463 57.3180636 90.5842463 59.9780636 90.1202463 61.2980636 97.6812463"></polyline>
                    <polyline id="Fill-59" fill="#0A0B09" points="27.9480636 23.1582463 25.8780636 24.8872463 20.9580636 18.9992463 23.0280636 17.2722463 27.9480636 23.1582463"></polyline>
                    <polyline id="Fill-60" fill="#0A0B09" points="82.9180636 86.8712463 80.8480636 88.6002463 75.9180636 82.7142463 77.9880636 80.9852463 82.9180636 86.8712463"></polyline>
                    <polyline id="Fill-61" fill="#0A0B09" points="13.2880636 57.3202463 13.7480636 59.9762463 6.18806358 61.2982463 5.72806358 58.6412463 13.2880636 57.3202463"></polyline>
                    <polyline id="Fill-62" fill="#0A0B09" points="97.6780636 42.5762463 98.1480636 45.2312463 90.5780636 46.5542463 90.1180636 43.8982463 97.6780636 42.5762463"></polyline>
                    <polyline id="Fill-63" fill="#0A0B09" points="21.1580636 75.9222463 22.8880636 77.9912463 16.9980636 82.9152463 15.2680636 80.8472463 21.1580636 75.9222463"></polyline>
                    <polyline id="Fill-64" fill="#0A0B09" points="86.8680636 20.9572463 88.6080636 23.0272463 82.7080636 27.9522463 80.9880636 25.8852463 86.8680636 20.9572463"></polyline>
                    <polyline id="Fill-65" fill="#0A0B09" points="21.3180636 39.3022463 20.3880636 41.8342463 7.25806358 37.0322463 8.18806358 34.5002463 21.3180636 39.3022463"></polyline>
                    <polyline id="Fill-66" fill="#0A0B09" points="96.6080636 66.8412463 95.6780636 69.3732463 82.5580636 64.5712463 83.4780636 62.0402463 96.6080636 66.8412463"></polyline>
                    <polyline id="Fill-67" fill="#0A0B09" points="59.0980636 54.8432463 56.6180636 58.1242463 29.2780636 37.5022463 31.7580636 34.2202463 59.0980636 54.8432463"></polyline>
                    <polyline id="Fill-68" fill="#0A0B09" points="46.9180636 45.0492463 49.6280636 43.7642463 67.5980636 81.5592463 64.8880636 82.8462463 46.9180636 45.0492463"></polyline>
                </g>
                <g id="cog-left" transform="translate(1357.870081, 563.335846)" fill-rule="nonzero">
                    <path d="M73.8599194,51.1761536 C66.6399194,70.9291536 44.7699194,81.0851536 25.0099194,73.8601536 C5.25991935,66.6351536 -4.90008065,44.7661536 2.32991935,25.0131536 C9.54991935,5.25915357 31.4199194,-4.89784643 51.1799194,2.32815357 C70.9299194,9.55315357 81.0899194,31.4221536 73.8599194,51.1761536" id="Fill-69" fill="#0A0B09"></path>
                    <path d="M32.4299194,53.5691536 C23.6199194,50.3451536 19.0099194,40.8031536 22.1299194,32.2561536 C25.2599194,23.7091536 34.9399194,19.3931536 43.7499194,22.6181536 C52.5699194,25.8431536 57.1799194,35.3851536 54.0599194,43.9321536 C50.9299194,52.4781536 41.2499194,56.7931536 32.4299194,53.5691536 Z M61.1499194,48.4751536 L62.3999194,45.0361536 L58.6699194,43.6701536 C58.8199194,43.1021536 58.9499194,42.5341536 59.0499194,41.9641536 L62.9899194,42.3471536 L63.2899194,38.6881536 L59.3499194,38.3081536 C59.3399194,37.7211536 59.3099194,37.1361536 59.2499194,36.5551536 L63.1399194,35.9281536 L62.4599194,32.3011536 L58.5599194,32.9291536 C58.3999194,32.3621536 58.2199194,31.8021536 58.0099194,31.2511536 L61.5899194,29.6571536 L59.9699194,26.3091536 L56.3899194,27.9021536 C56.0899194,27.3931536 55.7599194,26.8971536 55.4199194,26.4141536 L58.4299194,23.9621536 L55.9899194,21.1181536 L52.9799194,23.5681536 C52.5499194,23.1511536 52.1099194,22.7481536 51.6499194,22.3641536 L53.8799194,19.2291536 L50.7799194,17.0861536 L48.5399194,20.2281536 C48.0199194,19.9341536 47.4899194,19.6571536 46.9399194,19.4021536 L48.2699194,15.7821536 L44.7199194,14.4841536 L43.3899194,18.1041536 C42.8099194,17.9461536 42.2299194,17.8131536 41.6399194,17.7041536 L41.9499194,13.8551536 L38.1999194,13.4921536 L37.8899194,17.3331536 C37.2899194,17.3271536 36.6899194,17.3511536 36.0999194,17.3941536 L35.3799194,13.5801536 L31.6699194,14.1771536 L32.3999194,17.9941536 C31.8199194,18.1411536 31.2499194,18.3081536 30.6899194,18.5001536 L28.9899194,14.9771536 L25.5899194,16.4901536 L27.2899194,20.0151536 C26.7799194,20.3011536 26.2799194,20.6111536 25.7899194,20.9401536 L23.2099194,17.9471536 L20.3499194,20.2761536 L22.9199194,23.2671536 C22.4999194,23.6741536 22.0999194,24.0981536 21.7099194,24.5421536 L18.4599194,22.2911536 L16.3299194,25.2771536 L19.5899194,27.5331536 C19.2999194,28.0331536 19.0299194,28.5471536 18.7699194,29.0781536 L15.0399194,27.7121536 L13.7799194,31.1511536 L17.5199194,32.5171536 C17.3699194,33.0841536 17.2399194,33.6531536 17.1399194,34.2231536 L13.1899194,33.8411536 L12.8999194,37.4981536 L16.8399194,37.8801536 C16.8399194,38.4671536 16.8799194,39.0511536 16.9399194,39.6321536 L13.0399194,40.2591536 L13.7299194,43.8861536 L17.6199194,43.2591536 C17.7899194,43.8251536 17.9699194,44.3851536 18.1799194,44.9361536 L14.5999194,46.5291536 L16.2199194,49.8791536 L19.7999194,48.2851536 C20.0999194,48.7941536 20.4299194,49.2891536 20.7699194,49.7731536 L17.7599194,52.2261536 L20.1999194,55.0681536 L23.2099194,52.6191536 C23.6399194,53.0351536 24.0799194,53.4391536 24.5399194,53.8221536 L22.2999194,56.9581536 L25.3999194,59.1021536 L27.6499194,55.9591536 C28.1699194,56.2541536 28.6999194,56.5291536 29.2499194,56.7851536 L27.9199194,60.4051536 L31.4699194,61.7021536 L32.7899194,58.0821536 C33.3799194,58.2411536 33.9599194,58.3741536 34.5499194,58.4821536 L34.2399194,62.3321536 L37.9899194,62.6941536 L38.2999194,58.8531536 C38.8999194,58.8601536 39.4999194,58.8361536 40.0899194,58.7931536 L40.8099194,62.6061536 L44.5099194,62.0111536 L43.7899194,58.1921536 C44.3699194,58.0471536 44.9399194,57.8801536 45.4999194,57.6861536 L47.1999194,61.2111536 L50.5999194,59.6961536 L48.8999194,56.1721536 C49.4099194,55.8861536 49.9099194,55.5761536 50.3999194,55.2471536 L52.9699194,58.2391536 L55.8399194,55.9101536 L53.2699194,52.9211536 C53.6799194,52.5131536 54.0899194,52.0901536 54.4699194,51.6451536 L57.7299194,53.8951536 L59.8599194,50.9091536 L56.5999194,48.6541536 C56.8899194,48.1541536 57.1599194,47.6401536 57.4099194,47.1091536 L61.1499194,48.4751536 L61.1499194,48.4751536 Z" id="Fill-70" fill="#FFFFFE"></path>
                    <path d="M36.7999194,29.0191536 C35.9999194,31.1981536 37.1799194,33.6301536 39.4299194,34.4521536 C41.6699194,35.2741536 44.1399194,34.1751536 44.9399194,31.9961536 C45.7299194,29.8171536 44.5599194,27.3851536 42.3099194,26.5621536 C40.0599194,25.7411536 37.5999194,26.8411536 36.7999194,29.0191536" id="Fill-71" fill="#E5E5E0"></path>
                    <path d="M39.3899194,47.1681536 C40.1799194,44.9891536 39.0099194,42.5571536 36.7599194,41.7341536 C34.5099194,40.9131536 32.0499194,42.0131536 31.2499194,44.1911536 C30.4499194,46.3701536 31.6299194,48.8031536 33.8799194,49.6241536 C36.1199194,50.4461536 38.5899194,49.3471536 39.3899194,47.1681536" id="Fill-72" fill="#FFFFFE"></path>
                    <path d="M34.3399194,36.7201536 C35.1299194,34.5411536 33.9599194,32.1091536 31.7099194,31.2871536 C29.4599194,30.4651536 26.9999194,31.5651536 26.1999194,33.7431536 C25.3999194,35.9221536 26.5799194,38.3541536 28.8299194,39.1771536 C31.0699194,39.9981536 33.5399194,38.8981536 34.3399194,36.7201536" id="Fill-73" fill="#FFFFFE"></path>
                    <path d="M47.3599194,37.0111536 C45.1099194,36.1881536 42.6499194,37.2891536 41.8499194,39.4671536 C41.0499194,41.6451536 42.2299194,44.0781536 44.4799194,44.9001536 C46.7199194,45.7221536 49.1899194,44.6221536 49.9899194,42.4431536 C50.7799194,40.2651536 49.6099194,37.8321536 47.3599194,37.0111536" id="Fill-74" fill="#FFFFFE"></path>
                </g>
                <g id="cog-right" transform="translate(1470.254189, 604.441236)" fill-rule="nonzero">
                    <path d="M73.8658112,51.1757636 C66.6358112,70.9287636 44.7658112,81.0847636 25.0158112,73.8597636 C5.2558112,66.6347636 -4.8941888,44.7657636 2.3258112,25.0117636 C9.5558112,5.25876363 31.4258112,-4.89723637 51.1758112,2.32776363 C70.9258112,9.55276363 81.0858112,31.4217636 73.8658112,51.1757636" id="Fill-75" fill="#0A0B09"></path>
                    <path d="M32.4358112,53.5697636 C23.6158112,50.3447636 19.0058112,40.8017636 22.1358112,32.2547636 C25.2558112,23.7077636 34.9358112,19.3937636 43.7558112,22.6187636 C52.5758112,25.8427636 57.1858112,35.3847636 54.0558112,43.9317636 C50.9258112,52.4787636 41.2458112,56.7927636 32.4358112,53.5697636 Z M61.1458112,48.4747636 L62.4058112,45.0357636 L58.6758112,43.6697636 C58.8258112,43.1027636 58.9458112,42.5347636 59.0458112,41.9637636 L62.9958112,42.3467636 L63.2958112,38.6887636 L59.3558112,38.3077636 C59.3458112,37.7207636 59.3058112,37.1357636 59.2558112,36.5547636 L63.1458112,35.9277636 L62.4558112,32.3007636 L58.5658112,32.9287636 C58.4058112,32.3627636 58.2258112,31.8017636 58.0158112,31.2507636 L61.5858112,29.6577636 L59.9658112,26.3087636 L56.3958112,27.9027636 C56.0858112,27.3937636 55.7658112,26.8977636 55.4158112,26.4137636 L58.4258112,23.9617636 L55.9858112,21.1187636 L52.9758112,23.5687636 C52.5558112,23.1517636 52.1058112,22.7477636 51.6458112,22.3647636 L53.8858112,19.2287636 L50.7858112,17.0857636 L48.5358112,20.2287636 C48.0258112,19.9337636 47.4958112,19.6577636 46.9458112,19.4027636 L48.2658112,15.7827636 L44.7158112,14.4847636 L43.3958112,18.1047636 C42.8158112,17.9457636 42.2258112,17.8137636 41.6358112,17.7047636 L41.9558112,13.8557636 L38.2058112,13.4927636 L37.8858112,17.3327636 C37.2858112,17.3277636 36.6958112,17.3507636 36.0958112,17.3947636 L35.3758112,13.5797636 L31.6758112,14.1767636 L32.3958112,17.9947636 C31.8158112,18.1407636 31.2458112,18.3077636 30.6858112,18.4997636 L28.9858112,14.9767636 L25.5858112,16.4907636 L27.2958112,20.0147636 C26.7758112,20.3007636 26.2758112,20.6117636 25.7858112,20.9407636 L23.2158112,17.9477636 L20.3558112,20.2767636 L22.9258112,23.2667636 C22.5058112,23.6737636 22.0958112,24.0967636 21.7158112,24.5417636 L18.4558112,22.2907636 L16.3258112,25.2777636 L19.5858112,27.5337636 C19.2958112,28.0327636 19.0258112,28.5467636 18.7758112,29.0787636 L15.0458112,27.7117636 L13.7858112,31.1517636 L17.5158112,32.5167636 C17.3658112,33.0837636 17.2458112,33.6537636 17.1458112,34.2227636 L13.1958112,33.8407636 L12.8958112,37.4977636 L16.8358112,37.8797636 C16.8458112,38.4667636 16.8758112,39.0507636 16.9358112,39.6317636 L13.0458112,40.2587636 L13.7258112,43.8857636 L17.6258112,43.2587636 C17.7858112,43.8257636 17.9658112,44.3847636 18.1758112,44.9357636 L14.6058112,46.5297636 L16.2158112,49.8787636 L19.7958112,48.2857636 C20.0958112,48.7937636 20.4258112,49.2887636 20.7758112,49.7737636 L17.7558112,52.2257636 L20.2058112,55.0687636 L23.2158112,52.6187636 C23.6358112,53.0357636 24.0758112,53.4397636 24.5458112,53.8227636 L22.3058112,56.9577636 L25.4058112,59.1017636 L27.6458112,55.9587636 C28.1658112,56.2537636 28.6958112,56.5297636 29.2458112,56.7857636 L27.9258112,60.4057636 L31.4658112,61.7027636 L32.7958112,58.0817636 C33.3758112,58.2417636 33.9658112,58.3737636 34.5458112,58.4827636 L34.2358112,62.3317636 L37.9858112,62.6947636 L38.2958112,58.8537636 C38.9058112,58.8597636 39.4958112,58.8357636 40.0958112,58.7917636 L40.8158112,62.6067636 L44.5158112,62.0107636 L43.7958112,58.1927636 C44.3658112,58.0467636 44.9358112,57.8787636 45.4958112,57.6867636 L47.2058112,61.2107636 L50.6058112,59.6967636 L48.8958112,56.1717636 C49.4158112,55.8857636 49.9158112,55.5757636 50.4058112,55.2467636 L52.9758112,58.2397636 L55.8358112,55.9107636 L53.2658112,52.9207636 C53.6858112,52.5127636 54.0858112,52.0897636 54.4758112,51.6457636 L57.7258112,53.8957636 L59.8658112,50.9097636 L56.5958112,48.6547636 C56.8958112,48.1547636 57.1658112,47.6397636 57.4158112,47.1097636 L61.1458112,48.4747636 L61.1458112,48.4747636 Z" id="Fill-76" fill="#FFFFFE"></path>
                    <path d="M36.7958112,29.0197636 C36.0058112,31.1987636 37.1758112,33.6297636 39.4258112,34.4527636 C41.6758112,35.2747636 44.1458112,34.1737636 44.9358112,31.9967636 C45.7358112,29.8177636 44.5558112,27.3847636 42.3158112,26.5627636 C40.0658112,25.7417636 37.5958112,26.8407636 36.7958112,29.0197636" id="Fill-77" fill="#E5E5E0"></path>
                    <path d="M39.3858112,47.1677636 C40.1858112,44.9897636 39.0058112,42.5567636 36.7658112,41.7347636 C34.5158112,40.9127636 32.0458112,42.0127636 31.2558112,44.1917636 C30.4558112,46.3707636 31.6258112,48.8027636 33.8758112,49.6237636 C36.1258112,50.4467636 38.5958112,49.3467636 39.3858112,47.1677636" id="Fill-78" fill="#FFFFFE"></path>
                    <path d="M34.3358112,36.7197636 C35.1358112,34.5407636 33.9558112,32.1087636 31.7158112,31.2877636 C29.4658112,30.4647636 26.9958112,31.5647636 26.2058112,33.7437636 C25.4058112,35.9217636 26.5758112,38.3547636 28.8258112,39.1767636 C31.0758112,39.9977636 33.5458112,38.8987636 34.3358112,36.7197636" id="Fill-79" fill="#FFFFFE"></path>
                    <path d="M47.3658112,37.0107636 C45.1158112,36.1887636 42.6458112,37.2877636 41.8558112,39.4667636 C41.0558112,41.6457636 42.2258112,44.0787636 44.4758112,44.9007636 C46.7258112,45.7217636 49.1958112,44.6217636 49.9858112,42.4437636 C50.7858112,40.2647636 49.6058112,37.8317636 47.3658112,37.0107636" id="Fill-80" fill="#FFFFFE"></path>
                </g>
                <g id="zaps" transform="translate(1547.860000, 111.571000)" fill="#EDF6F5" fill-rule="nonzero">
                    <polyline id="Fill-81" points="47.93 52.791 40.54 24.185 31.23 32.19 20.66 1.965 26.22 0 33.22 25.409 44.16 17.265 49.22 52.398 47.93 52.791"></polyline>
                    <polyline id="Fill-82" points="59.82 53.088 58.71 52.835 65.31 28.734 55.1 30.695 60.05 4.062 64.96 4.961 59.41 26.554 70.87 25.17 59.82 53.088"></polyline>
                    <polyline id="Fill-83" points="38.74 61.805 22.93 42.953 18.79 52.313 3.55271368e-15 33.389 3.48 29.914 17.86 46.502 23.16 36.454 39.57 61.054 38.74 61.805"></polyline>
                </g>
                <g id="smoke-bubbles" transform="translate(135.059000, 408.905000)" fill="#EDF6F5" fill-rule="nonzero">
                    <path d="M78.568,202 C65,202 54,191 54,177.432 C54,163.862 65,152.864 78.568,152.864 C92.136,152.864 103.136,163.862 103.136,177.432 C103.136,191 92.136,202 78.568,202" id="Fill-115"></path>
                    <path d="M195.505,85.023 C186.662,85.023 179.493,77.855 179.493,69.012 C179.493,60.169 186.662,53 195.505,53 C204.348,53 211.517,60.169 211.517,69.012 C211.517,77.855 204.348,85.023 195.505,85.023" id="Fill-116"></path>
                    <path d="M15.731,260.763 C7.494,260.763 0.817,254.085 0.817,245.849 C0.817,237.612 7.494,230.935 15.731,230.935 C23.967,230.935 30.644,237.612 30.644,245.849 C30.644,254.085 23.967,260.763 15.731,260.763" id="Fill-114"></path>
                    <path d="M183.521,299.691 C171.986,299.691 161.937,293.354 156.646,283.975 C151.619,289.143 144.595,292.357 136.817,292.357 C121.537,292.357 109.15,279.97 109.15,264.691 C109.15,254.354 114.823,245.347 123.222,240.598 C122.87,238.734 122.678,236.814 122.678,234.848 C122.678,217.814 136.488,204.005 153.521,204.005 C169.275,204.005 182.261,215.818 184.125,231.069 C170.278,231.909 158.904,241.883 155.94,255.046 C161.006,244.944 171.45,238.005 183.521,238.005 C200.555,238.005 214.364,251.814 214.364,268.848 C214.364,271.186 214.095,273.46 213.602,275.65 C210.503,289.41 198.216,299.691 183.521,299.691" id="Fill-113"></path>
                    <path d="M1145.251,240.394 C1137.661,240.394 1131.511,234.244 1131.511,226.657 C1131.511,224.067 1132.241,221.651 1133.491,219.583 C1135.731,224.016 1140.291,227.07 1145.581,227.135 C1139.611,225.643 1135.181,220.258 1135.181,213.825 C1135.181,206.239 1141.331,200.088 1148.911,200.088 L1149.081,200.097 C1156.591,200.189 1162.651,206.296 1162.651,213.825 C1162.651,217.622 1161.111,221.061 1158.621,223.547 C1158.851,224.548 1158.981,225.586 1158.981,226.657 C1158.981,234.244 1152.831,240.394 1145.251,240.394" id="Fill-112"></path>
                    <path d="M1023.911,279.856 C1009.611,279.856 998.011,268.259 998.011,253.953 C998.011,239.648 1009.611,228.05 1023.911,228.05 C1025.291,228.05 1026.641,228.16 1027.961,228.366 C1026.511,231.182 1025.681,234.366 1025.681,237.75 C1025.681,243.612 1028.141,248.888 1032.081,252.633 C1030.351,249.621 1029.341,246.14 1029.341,242.417 C1029.341,231.062 1038.551,221.857 1049.901,221.857 C1055.401,221.857 1060.381,224.025 1064.061,227.534 C1068.001,231.281 1070.461,236.556 1070.461,242.417 C1070.461,253.772 1061.261,262.977 1049.901,262.977 C1049.341,262.977 1048.781,262.938 1048.231,262.893 C1044.591,272.793 1035.081,279.856 1023.911,279.856" id="Fill-111"></path>
                    <path d="M1192.271,220.191 C1184.761,220.191 1178.681,214.105 1178.681,206.598 C1178.681,199.091 1184.761,193.005 1192.271,193.005 C1199.781,193.005 1205.861,199.091 1205.861,206.598 C1205.861,214.105 1199.781,220.191 1192.271,220.191" id="Fill-110"></path>
                    <path d="M178.537,175.202 C172.915,175.202 167.388,172.525 163.963,167.542 C163.743,167.223 163.556,166.892 163.361,166.565 C158.626,158.63 160.791,148.283 168.512,142.976 C171.568,140.875 175.05,139.867 178.497,139.867 C182.944,139.867 187.332,141.543 190.668,144.709 C190.472,144.381 190.285,144.05 190.065,143.731 C186.644,138.754 181.129,136.087 175.516,136.087 C172.856,136.087 170.173,136.686 167.682,137.922 C166.83,130.67 169.914,123.202 176.349,118.778 C179.868,116.358 183.879,115.198 187.85,115.198 C194.319,115.198 200.681,118.279 204.623,124.014 C210.986,133.268 208.641,145.927 199.388,152.288 C198.26,153.064 197.08,153.706 195.869,154.226 C197.137,160.899 194.486,167.996 188.529,172.092 C185.472,174.194 181.987,175.202 178.537,175.202" id="Fill-109"></path>
                    <path d="M1068.311,305.644 C1058.751,305.644 1051.011,297.9 1051.011,288.347 C1051.011,278.794 1058.751,271.05 1068.311,271.05 C1077.861,271.05 1085.601,278.794 1085.601,288.347 C1085.601,297.9 1077.861,305.644 1068.311,305.644" id="Fill-102"></path>
                    <path d="M1107.851,276.69 C1096.161,276.69 1086.681,267.21 1086.681,255.515 C1086.681,243.82 1096.161,234.338 1107.851,234.338 C1119.551,234.338 1129.031,243.82 1129.031,255.515 C1129.031,267.21 1119.551,276.69 1107.851,276.69" id="Fill-103"></path>
                    <path d="M1178.581,249.811 C1173.941,249.811 1170.181,246.048 1170.181,241.408 C1170.181,236.767 1173.941,233.005 1178.581,233.005 C1183.221,233.005 1186.981,236.767 1186.981,241.408 C1186.981,246.048 1183.221,249.811 1178.581,249.811" id="Fill-104"></path>
                    <path d="M1212.081,249.311 C1207.441,249.311 1203.681,245.548 1203.681,240.908 C1203.681,236.267 1207.441,232.505 1212.081,232.505 C1216.721,232.505 1220.481,236.267 1220.481,240.908 C1220.481,245.548 1216.721,249.311 1212.081,249.311" id="Fill-105"></path>
                    <path d="M1167.901,187.311 C1163.991,187.311 1160.821,184.139 1160.821,180.227 C1160.821,176.315 1163.991,173.144 1167.901,173.144 C1171.811,173.144 1174.981,176.315 1174.981,180.227 C1174.981,184.139 1171.811,187.311 1167.901,187.311" id="Fill-106"></path>
                    <path d="M997.081,221.811 C992.441,221.811 988.681,218.048 988.681,213.407 C988.681,208.767 992.441,205.005 997.081,205.005 C1001.721,205.005 1005.481,208.767 1005.481,213.407 C1005.481,218.048 1001.721,221.811 997.081,221.811" id="Fill-107"></path>
                    <path d="M279.151,57.691 C263.319,57.691 250.484,44.856 250.484,29.024 C250.484,13.192 263.319,0.357 279.151,0.357 C294.982,0.357 307.817,13.192 307.817,29.024 C307.817,44.856 294.982,57.691 279.151,57.691" id="Fill-108"></path>
                    <path d="M749.752,131.944 C738.118,131.944 728.688,122.512 728.688,110.878 C728.688,99.245 738.118,89.814 749.752,89.814 C761.386,89.814 770.817,99.245 770.817,110.878 C770.817,122.512 761.386,131.944 749.752,131.944" id="Fill-100"></path>
                    <path d="M520.817,378.691 C502.04,378.691 486.817,363.468 486.817,344.691 C486.817,344.057 486.838,343.427 486.872,342.802 C479.838,344.989 472.359,346.168 464.606,346.168 C458.993,346.168 453.533,345.531 448.273,344.361 C414.777,336.905 389.727,307.032 389.727,271.29 C389.727,229.936 423.251,196.411 464.606,196.411 C465.753,196.411 466.893,196.448 468.028,196.498 C462.768,195.327 457.308,194.691 451.695,194.691 C410.341,194.691 376.817,228.215 376.817,269.569 C376.817,285.445 381.772,300.155 390.2,312.27 C381.324,317.613 370.931,320.691 359.817,320.691 C343.412,320.691 328.575,313.989 317.881,303.182 C309.167,311.542 297.347,316.691 284.317,316.691 C257.531,316.691 235.817,294.976 235.817,268.191 C235.817,258.488 238.677,249.459 243.585,241.878 C227.067,233.745 215.697,216.752 215.697,197.097 C215.697,172.872 232.965,152.687 255.86,148.159 C250.712,140.62 247.697,131.509 247.697,121.691 C247.697,95.733 268.74,74.691 294.697,74.691 C302.298,74.691 309.472,76.506 315.826,79.71 C319.279,66.089 331.618,56.01 346.314,56.01 C353.413,56.01 359.961,58.364 365.226,62.331 C365.07,64.014 364.98,65.715 364.98,67.439 C364.98,79.426 368.838,90.506 375.364,99.53 L375.315,99.655 L375.514,99.739 C377.775,102.836 380.349,105.688 383.196,108.245 C378.917,100.435 376.481,91.472 376.481,81.939 C376.481,51.654 401.031,27.104 431.316,27.104 C445.392,27.104 458.225,32.414 467.935,41.133 C474.179,46.74 479.119,53.761 482.273,61.689 C490.528,51.248 503.296,44.54 517.64,44.54 C535.846,44.54 551.492,55.357 558.605,70.895 C565.254,56.714 579.616,46.871 596.314,46.871 C616.628,46.871 633.526,61.414 637.213,80.654 C644.091,74.387 653.207,70.533 663.246,70.533 C684.623,70.533 701.953,87.863 701.953,109.241 C701.953,112.293 701.564,115.248 700.895,118.097 C697.156,117.425 693.313,117.055 689.38,117.055 C675.808,117.055 663.217,121.239 652.811,128.379 C638.439,102.283 610.679,84.596 578.782,84.596 C532.132,84.596 494.317,122.412 494.317,169.061 C494.317,171.549 494.446,174.006 494.657,176.439 C499.272,134.152 535.091,101.24 578.606,101.24 C605.858,101.24 630.078,114.158 645.522,134.189 C632.694,146.018 624.651,162.959 624.651,181.785 C624.651,184.518 624.84,187.205 625.169,189.849 C629.142,157.908 656.365,133.184 689.38,133.184 C722.397,133.184 749.621,157.908 753.593,189.849 C753.922,187.205 754.111,184.518 754.111,181.785 C754.111,175.707 753.255,169.834 751.689,164.257 C760.32,158.376 770.745,154.934 781.977,154.934 C804.94,154.934 824.535,169.313 832.28,189.553 C827.867,195.84 825.254,203.485 825.254,211.75 C825.254,212.276 825.312,212.79 825.333,213.312 C829.955,197.107 844.839,185.229 862.528,185.229 C883.381,185.229 900.331,201.727 901.161,222.375 C902.121,218.995 902.671,215.439 902.671,211.75 C902.671,190.372 885.341,173.042 863.961,173.042 C852.556,173.042 842.336,178.005 835.252,185.854 C832.644,168.083 821.36,153.14 805.838,145.454 C812.072,141.16 819.617,138.634 827.76,138.634 C842.195,138.634 854.76,146.552 861.414,158.266 C865.741,154.842 871.191,152.782 877.141,152.782 C891.141,152.782 902.501,164.136 902.501,178.143 C902.501,180.876 902.051,183.503 901.251,185.97 C903.681,185.492 906.191,185.229 908.761,185.229 C926.051,185.229 940.691,196.57 945.651,212.216 C949.021,210.663 952.751,209.771 956.711,209.771 C971.311,209.771 983.141,221.607 983.141,236.207 C983.141,250.808 971.311,262.644 956.711,262.644 C953.181,262.644 949.831,261.943 946.761,260.689 C946.681,271.748 937.701,280.691 926.621,280.691 C920.271,280.691 914.611,277.748 910.921,273.16 C908.491,289.413 894.481,301.88 877.551,301.88 C864.083,301.88 852.462,293.992 847.047,282.587 C841.633,293.992 830.012,301.88 816.548,301.88 C807.957,301.88 800.121,298.664 794.163,293.378 C795.437,289.154 796.13,284.677 796.13,280.037 C796.13,254.547 775.465,233.883 749.976,233.883 C747.398,233.883 744.872,234.105 742.409,234.511 C766.373,236.189 785.296,256.147 785.296,280.538 C785.296,303.448 768.597,322.451 746.709,326.063 C744.246,326.469 741.72,326.69 739.142,326.69 C724.228,326.69 710.975,319.61 702.537,308.634 C711.716,295.764 714.049,278.517 707.154,263.031 C706.106,260.675 704.877,258.457 703.503,256.372 C711.717,278.947 701.18,304.352 678.898,314.271 C672.802,316.984 666.433,318.269 660.166,318.269 C649.43,318.269 638.992,314.5 630.735,307.69 C630.349,308.896 629.918,310.081 629.458,311.252 C620.983,332.78 600.021,348.024 575.484,348.024 C571.136,348.024 566.907,347.531 562.832,346.623 C536.887,340.849 517.484,317.709 517.484,290.024 C517.484,257.992 543.451,232.024 575.484,232.024 C576.373,232.024 577.255,232.051 578.135,232.091 C574.061,231.184 569.831,230.691 565.484,230.691 C533.451,230.691 507.484,256.658 507.484,288.691 C507.484,317.069 527.87,340.67 554.791,345.691 C554.262,364.004 539.259,378.691 520.817,378.691" id="smoke-cloud"></path>
                </g>
                <g id="puffs" transform="translate(1257.349076, 393.680000)" fill="#EDF6F5" fill-rule="nonzero">
                    <path d="M54.780924,60.096 L36.710924,47.087 C36.640924,47.26 36.570924,47.435 36.490924,47.606 C33.570924,53.616 27.550924,57.112 21.280924,57.112 C18.800924,57.112 16.280924,56.562 13.900924,55.403 C5.51092404,51.316 2.02092404,41.202 6.10092404,32.811 C6.37092404,32.257 6.67092404,31.728 6.99092404,31.218 C0.430924045,26.349 -1.95907596,17.358 1.75092404,9.741 C4.75092404,3.582 10.910924,3.55271368e-15 17.330924,3.55271368e-15 C19.880924,3.55271368e-15 22.460924,0.563 24.900924,1.752 C27.300924,2.919 29.300924,4.58 30.850924,6.537 C33.530924,5.016 36.570924,4.2 39.670924,4.2 C42.270924,4.2 44.910924,4.776 47.410924,5.993 C56.220924,10.283 59.890924,20.903 55.600924,29.715 C53.910924,33.189 51.220924,35.848 48.060924,37.549 L60.380924,54.475 L58.410924,56.073 L46.570924,41.453 L37.410924,30.128 L40.830924,27.614 L45.560924,34.107 C47.680924,32.76 49.470924,30.842 50.650924,28.419 C54.050924,21.444 51.140924,13.034 44.170924,9.64 C42.200924,8.68 40.110924,8.227 38.060924,8.227 C36.190924,8.227 34.360924,8.599 32.650924,9.303 C33.550924,11.023 34.170924,12.877 34.460924,14.799 C33.180924,11.524 30.730924,8.696 27.320924,7.037 C25.280924,6.044 23.130924,5.574 21.000924,5.574 C15.640924,5.574 10.480924,8.568 7.98092404,13.713 C4.48092404,20.9 7.47092404,29.559 14.660924,33.057 C16.330924,33.873 18.090924,34.322 19.840924,34.461 C19.000924,34.584 18.150924,34.647 17.300924,34.647 C14.760924,34.647 12.180924,34.087 9.74092404,32.898 C9.58092404,32.822 9.44092404,32.729 9.28092404,32.648 C6.49092404,39.452 9.41092404,47.343 16.110924,50.608 C18.090924,51.572 20.190924,52.028 22.250924,52.028 C27.030924,52.028 31.640924,49.577 34.240924,45.308 L27.820924,40.682 L30.320924,37.25 L42.030924,46.632 L56.360924,58.121 L54.780924,60.096" id="Fill-92"></path>
                    <path d="M446.510924,213.126 C439.570924,213.126 432.980924,209.027 430.130924,202.224 C428.640924,198.66 428.410924,194.887 429.230924,191.39 L408.380924,189.458 L408.480924,186.923 L427.280924,187.695 L441.830924,188.294 L441.460924,192.524 L433.460924,191.783 C433.070924,194.264 433.330924,196.878 434.370924,199.365 C436.620924,204.75 441.840924,207.994 447.340924,207.994 C449.140924,207.994 450.980924,207.643 452.750924,206.902 C456.610924,205.289 459.350924,202.148 460.610924,198.48 C458.720924,198.019 456.920924,197.259 455.290924,196.204 C456.880924,196.784 458.570924,197.092 460.290924,197.092 C462.140924,197.091 464.020924,196.734 465.830924,195.975 C473.200924,192.89 476.680924,184.414 473.600924,177.042 C471.270924,171.493 465.900924,168.152 460.240924,168.152 C458.380924,168.152 456.490924,168.513 454.660924,169.277 C452.940924,169.996 451.450924,171.017 450.190924,172.241 C452.020924,169.414 454.690924,167.088 458.030924,165.691 C458.190924,165.623 458.360924,165.576 458.520924,165.514 C456.100924,160.614 451.140924,157.69 445.920924,157.69 C444.120924,157.69 442.290924,158.04 440.520924,158.779 C433.780924,161.597 430.400924,169.054 432.530924,175.891 L440.240924,174.125 L441.170924,178.266 L426.390924,180.86 L408.300924,184.036 L407.860924,181.541 L429.560924,176.57 C429.480924,176.399 429.390924,176.237 429.320924,176.062 C425.710924,167.451 429.770924,157.551 438.380924,153.949 C440.520924,153.058 442.720924,152.636 444.900924,152.636 C451.510924,152.636 457.790924,156.539 460.500924,163.017 C460.730924,163.586 460.930924,164.161 461.110924,164.737 C462.310924,164.48 463.520924,164.355 464.710924,164.355 C471.490924,164.355 477.920924,168.346 480.690924,174.987 C484.390924,183.812 480.220924,193.958 471.400924,197.649 C469.220924,198.56 466.970924,198.977 464.750924,198.977 C464.460924,198.977 464.170924,198.97 463.880924,198.956 C462.730924,204.497 458.960924,209.399 453.350924,211.747 C451.110924,212.683 448.790924,213.126 446.510924,213.126" id="Fill-93"></path>
                </g>
                <g id="horz-zoom-lines" transform="translate(1262.240000, 724.213000)" fill="#CDE4E4">
                    <g>
                        <polygon id="Fill-117" fill-rule="nonzero" points="147.75 2.249 325.61 2.249 325.61 -2.22044605e-16 147.75 -2.22044605e-16"></polygon>
                        <polygon id="Fill-118" fill-rule="nonzero" points="110.69 15.747 288.55 15.747 288.55 13.497 110.69 13.497"></polygon>
                        <polygon id="Fill-119" fill-rule="nonzero" points="-8.52651283e-14 8.998 255.2 8.998 255.2 6.748 -8.52651283e-14 6.748"></polygon>
                    </g>
                </g>
                <g id="horz-zoom-lines" transform="translate(890.240000, 389.213000)" fill="#CDE4E4">
                    <g>
                        <polygon id="Fill-117" fill-rule="nonzero" points="147.75 2.249 325.61 2.249 325.61 -2.22044605e-16 147.75 -2.22044605e-16"></polygon>
                        <polygon id="Fill-118" fill-rule="nonzero" points="110.69 15.747 288.55 15.747 288.55 13.497 110.69 13.497"></polygon>
                        <polygon id="Fill-119" fill-rule="nonzero" points="-8.52651283e-14 8.998 255.2 8.998 255.2 6.748 -8.52651283e-14 6.748"></polygon>
                    </g>
                </g>
                <g id="horz-zoom-lines" transform="translate(1055.240000, 250.213000)" fill="#CDE4E4">
                    <g>
                        <polygon id="Fill-117" fill-rule="nonzero" points="147.75 2.249 325.61 2.249 325.61 -2.22044605e-16 147.75 -2.22044605e-16"></polygon>
                        <polygon id="Fill-118" fill-rule="nonzero" points="110.69 15.747 288.55 15.747 288.55 13.497 110.69 13.497"></polygon>
                        <polygon id="Fill-119" fill-rule="nonzero" points="-8.52651283e-14 8.998 255.2 8.998 255.2 6.748 -8.52651283e-14 6.748"></polygon>
                    </g>
                </g>
            </g>
        </g>
    </g>
</svg>