<?xml version="1.0" encoding="UTF-8"?>
<svg width="511px" height="506px" viewBox="0 0 511 506" version="1.1" xmlns="http://www.w3.org/2000/svg" xmlns:xlink="http://www.w3.org/1999/xlink">
    <!-- Generator: Sketch 60 (88103) - https://sketch.com -->
    <title>iconFlatForeground</title>
    <desc>Created with Sketch.</desc>
    <g id="Page-1" stroke="none" stroke-width="1" fill="none" fill-rule="evenodd">
        <g id="iconFlatForeground" transform="translate(-1.000000, 0.000000)">
            <g id="styled-leaf">
                <path d="M510.828288,313.069536 C512.114776,316.621598 511.434105,320.587852 509.020819,323.491181 C478.764912,359.999875 439.06545,387.927329 394.219041,404.251446 C390.22085,405.7086 386.178745,407.058963 382.1057,408.324491 C399.610511,417.108335 415.62623,428.679735 429.40931,442.632483 C432.057138,445.323228 433.089123,449.215626 432.111033,452.863501 C431.132943,456.511376 428.293489,459.360811 424.655595,460.360858 C409.149879,464.61455 393.177076,466.752374 377.171337,466.752374 C361.432078,466.752374 345.660881,464.689404 330.293895,460.573442 C307.174051,454.373552 285.617154,443.696405 266.868772,429.275571 L266.868772,495.062082 C266.868772,500.942596 262.104078,505.69731 256.233544,505.69731 C250.36301,505.69731 245.598316,500.943595 245.598316,495.062082 L245.598316,429.275571 C226.838955,443.707384 205.27108,454.394511 182.162214,460.584421 C166.78425,464.700382 151.013053,466.752374 135.273793,466.752374 C119.268055,466.752374 103.295251,464.625528 87.8005146,460.371836 C84.1636179,459.371789 81.3241637,456.522355 80.345076,452.87448 C79.3669864,449.226604 80.3979727,445.334207 83.0458012,442.643462 C96.8388616,428.679735 112.854581,417.099353 130.359392,408.325489 C126.297326,407.059961 122.256218,405.709598 118.246051,404.252444 C73.3996413,387.928327 33.7001793,360.000873 3.4442729,323.492179 C1.0299883,320.58885 0.349317739,316.622596 1.63680312,313.070534 C2.93426901,309.518472 6.00726706,306.92354 9.71901754,306.242869 C44.505076,299.88329 80.2592437,300.563961 114.80078,308.104234 C109.866417,301.904343 105.101723,295.544764 100.550612,289.036476 C62.1056998,234.139696 38.9439376,170.06584 33.5624483,103.737388 C33.2650292,99.9727407 34.9766862,96.3248655 38.0606628,94.1660819 C41.1556179,91.9963197 45.1647875,91.6350253 48.600078,93.2089513 C105.251431,119.189209 154.702846,159.15515 192.328359,209.212382 C192.328359,208.988819 192.31738,208.765255 192.31738,208.552671 C192.31738,137.194043 211.247407,67.1638207 247.054472,6.03521248 C248.968733,2.7805692 252.45692,0.781473684 256.232546,0.781473684 C260.008172,0.781473684 263.496359,2.7805692 265.41062,6.03521248 C301.217684,67.1638207 320.147712,137.193045 320.147712,208.552671 C320.147712,208.765255 320.136733,208.988819 320.136733,209.212382 C357.762246,159.144172 407.224639,119.189209 463.865014,93.2089513 C467.300304,91.6350253 471.309474,91.9963197 474.404429,94.1660819 C477.488405,96.3248655 479.20106,99.9727407 478.902643,103.737388 C473.521154,170.06584 450.359392,234.140694 411.91448,289.047454 C407.373349,295.544764 402.608655,301.894363 397.664312,308.094253 C432.184889,300.564959 467.949037,299.884288 502.746074,306.243867 C506.457825,306.92354 509.530823,309.517474 510.828288,313.069536 Z M479.605271,324.428351 C443.20237,320.748538 406.172694,325.26871 371.364678,337.732366 C347.733832,361.745466 321.232593,382.302316 292.253193,399.073559 C309.821879,399.797146 327.432483,398.626433 344.895376,395.542456 C359.103626,393.043337 373.248,389.246752 386.945248,384.259493 C422.081622,371.475462 453.783704,350.961528 479.605271,324.428351 Z M394.495501,276.848281 C427.101817,230.279236 448.051899,176.732819 455.645068,120.942784 C405.82138,147.157583 362.676647,185.166347 330.070331,231.735392 C325.890495,237.701739 321.828429,243.90163 317.988928,250.176374 C313.278129,295.533786 300.931244,339.731462 281.469255,380.739368 C309.534441,364.521045 335.142425,344.549053 357.880016,321.120811 C371.152094,307.497419 383.467041,292.598519 394.495501,276.848281 Z M335.802136,440.027571 C356.475758,445.568749 377.979758,446.887173 398.961778,443.983844 C383.275415,431.785669 365.324476,422.565676 346.086051,416.907727 C331.548444,419.331992 316.915025,420.555602 302.292585,420.555602 C298.559875,420.555602 294.827166,420.470768 291.104437,420.31108 C304.812663,429.073965 319.88223,435.762901 335.802136,440.027571 Z M298.878253,208.551673 C298.878253,147.349209 284.180959,87.1986901 256.232546,33.4087485 C228.284133,87.1996881 213.586838,147.349209 213.586838,208.551673 C213.586838,269.786074 228.284133,329.957552 256.232546,383.748491 C284.180959,329.957552 298.878253,269.787072 298.878253,208.551673 Z M221.372632,420.31108 C217.639922,420.470768 213.907212,420.555602 210.174503,420.555602 C195.552062,420.555602 180.928624,419.33299 166.401996,416.907727 C147.163571,422.554698 129.190674,431.77469 113.494331,443.983844 C134.46637,446.898152 155.969372,445.578729 176.653973,440.03855 C192.573879,435.773879 207.653427,429.083945 221.372632,420.31108 Z M167.603649,395.542456 C185.044585,398.626433 202.63423,399.786168 220.202916,399.062581 C191.244476,382.313294 164.743236,361.766425 141.101411,337.732366 C106.251478,325.26871 69.2427602,320.748538 32.8608187,324.428351 C58.682386,350.961528 90.3844678,371.47646 125.520842,384.259493 C139.176172,389.225793 153.266651,393.012398 167.400047,395.510519 C167.475899,395.521497 167.539774,395.531478 167.603649,395.542456 Z M231.007813,380.749349 C211.535844,339.731462 199.188959,295.543766 194.477162,250.176374 C190.62768,243.90163 186.575595,237.701739 182.395758,231.735392 C149.800421,185.176327 106.64471,147.167563 56.8210214,120.953762 C64.414191,176.732819 85.3642729,230.279236 117.970589,276.837302 C128.999049,292.59752 141.313996,307.497419 154.575096,321.109832 C177.333645,344.559033 202.953606,364.531025 231.007813,380.749349 Z" id="Shape" fill="#021F02" fill-rule="nonzero"></path>
                <g id="white-leaves" transform="translate(31.937622, 32.935673)" fill="#FFFFFF" fill-rule="nonzero">
                    <path d="M339.427057,304.796694 C374.234074,292.333037 411.264749,287.812865 447.667649,291.492678 C421.846082,318.025856 390.144,338.540788 355.007626,351.323821 C341.310378,356.31108 327.166004,360.107665 312.957754,362.606784 C295.49586,365.69076 277.884257,366.860476 260.315571,366.137887 C289.294971,349.366643 315.797209,328.809793 339.427057,304.796694 Z" id="Path"></path>
                    <path d="M423.707446,88.0071111 C416.114277,143.797146 395.164195,197.342565 362.557879,243.912608 C351.529419,259.662846 339.214472,274.561747 325.942394,288.185138 C303.205801,311.61338 277.596819,331.585372 249.531634,347.803696 C268.993622,306.795789 281.340507,262.598113 286.051306,217.240702 C289.890807,210.965957 293.952873,204.766066 298.13271,198.799719 C330.739025,152.230674 373.883758,114.22191 423.707446,88.0071111 Z" id="Path"></path>
                    <path d="M367.024156,411.048172 C346.042136,413.951501 324.538136,412.633076 303.864515,407.091899 C287.944608,402.827228 272.875041,396.138292 259.166815,387.375407 C262.888546,387.535096 266.622253,387.61993 270.354963,387.61993 C284.977404,387.61993 299.610823,386.397318 314.148429,383.972055 C333.386854,389.629006 351.337793,398.849996 367.024156,411.048172 Z" id="Path"></path>
                    <path d="M224.295922,0.473076023 C252.244335,54.2640156 266.94163,114.413536 266.94163,175.616 C266.94163,236.850402 252.244335,297.021879 224.295922,350.812819 C196.347509,297.021879 181.650214,236.8514 181.650214,175.616 C181.650214,114.413536 196.347509,54.2630175 224.295922,0.473076023 Z" id="Path"></path>
                    <path d="M178.236881,387.61993 C181.969591,387.61993 185.7023,387.535096 189.43501,387.375407 C175.715805,396.149271 160.636257,402.838207 144.716351,407.102877 C124.03175,412.643057 102.528749,413.96248 81.5567096,411.048172 C97.2540507,398.839018 115.225949,389.619025 134.464374,383.972055 C148.991002,386.39632 163.613442,387.61993 178.236881,387.61993 Z" id="Path"></path>
                    <path d="M188.265294,366.126908 C170.696608,366.850495 153.106963,365.69076 135.666027,362.606784 C135.602152,362.595805 135.538277,362.585825 135.464421,362.574846 C121.331025,360.075727 107.239548,356.290121 93.5852164,351.323821 C58.4478441,338.540788 26.7457622,318.026854 0.925192982,291.492678 C37.3061365,287.812865 74.3158519,292.333037 109.165786,304.796694 C132.804616,328.830752 159.306854,349.376624 188.265294,366.126908 Z" id="Path"></path>
                    <path d="M162.53954,217.240702 C167.250339,262.608094 179.597224,306.795789 199.070191,347.813676 C171.015984,331.595353 145.397021,311.623361 122.638472,288.17416 C109.377372,274.561747 97.062425,259.662846 86.0339649,243.90163 C53.4276491,197.342565 32.4775673,143.797146 24.8843977,88.0180897 C74.7080858,114.232889 117.863797,152.241653 150.459135,198.799719 C154.637973,204.766066 158.690058,210.965957 162.53954,217.240702 Z" id="Path"></path>
                </g>
            </g>
        </g>
    </g>
</svg>