<svg xmlns="http://www.w3.org/2000/svg" viewBox="0 0 32 32" width="32" height="32"><title>Twitter</title><path fill="#fff" d="M16 0C7.1776 0 0 7.1776 0 16c0 8.8217 7.1776 16 16 16 8.8217 0 16-7.1783 16-16 0-8.8224-7.177-16-16-16zm7.1377 12.338c.007.1586.011.3184.011.4782 0 4.8666-3.7033 10.4762-10.4788 10.4762-2.08 0-4.016-.6078-5.645-1.6532.288.0342.581.0516.878.0516 1.726 0 3.313-.589 4.574-1.5764-1.6117-.0297-2.972-1.0943-3.4407-2.558.2242.0426.4555.0664.692.0664.3358 0 .662-.0438.9706-.1282-1.6846-.3377-2.9536-1.826-2.9536-3.611 0-.0156 0-.0317.0007-.0465.4964.276 1.064.442 1.6674.461-.9874-.6593-1.6376-1.7872-1.6376-3.0646 0-.6754.181-1.3083.498-1.8522 1.8156 2.2287 4.53 3.6943 7.59 3.849-.063-.27-.0946-.5504-.0946-.84 0-2.0332 1.6484-3.6824 3.682-3.6824 1.0593 0 2.015.4474 2.688 1.1628.8397-.165 1.626-.4704 2.3394-.894-.277.8605-.859 1.5817-1.6215 2.038.7456-.089 1.457-.286 2.115-.5794-.491.7372-1.1154 1.3862-1.8353 1.9037z"/></svg>